<?xml version="1.0" standalone="no"?>
<!DOCTYPE svg PUBLIC "-//W3C//DTD SVG 20010904//EN"
 "http://www.w3.org/TR/2001/REC-SVG-20010904/DTD/svg10.dtd">
<svg version="1.0" xmlns="http://www.w3.org/2000/svg"
 width="108.000000pt" height="83.000000pt" viewBox="0 0 108.000000 83.000000"
 preserveAspectRatio="xMidYMid meet">

<g transform="translate(0.000000,83.000000) scale(0.100000,-0.100000)"
fill="#000000" stroke="none">
<path d="M0 415 l0 -415 540 0 540 0 0 415 0 415 -540 0 -540 0 0 -415z m231
335 c5 -8 29 -60 54 -115 25 -55 72 -156 104 -225 l58 -125 189 0 189 0 72
147 72 148 45 0 c26 0 46 -4 46 -8 0 -5 -9 -27 -20 -50 -11 -23 -48 -101 -81
-174 -33 -73 -65 -139 -71 -145 -8 -10 -71 -13 -253 -13 l-243 0 -27 58 c-15
31 -41 86 -58 122 -16 36 -55 120 -88 188 l-58 122 -60 0 c-64 0 -62 -2 -65
55 -1 11 0 24 2 28 2 4 44 6 94 5 68 -2 93 -7 99 -18z m295 -636 c39 -59 -45
-126 -98 -77 -34 31 -17 97 27 105 32 6 55 -3 71 -28z m326 3 c24 -38 -6 -97
-49 -97 -54 0 -86 47 -63 91 21 38 89 42 112 6z"/>
</g>
</svg>
